{"accessors":[{"bufferView":0,"byteOffset":0,"componentType":5126,"count":36,"max":[10.0,0.5,10.0],"min":[-10.0,-0.5,-10.0],"normalized":false,"type":"VEC3"},{"bufferView":1,"byteOffset":0,"componentType":5126,"count":36,"max":[0.0,0.0,0.0000763009302318096,-1.0],"min":[-1.0,-1.0,-1.0,-1.0],"normalized":false,"type":"VEC4"},{"bufferView":2,"byteOffset":0,"componentType":5126,"count":36,"max":[1.0,1.0,1.0],"min":[-1.0,-1.0,-1.0],"normalized":false,"type":"VEC3"},{"bufferView":3,"byteOffset":0,"componentType":5126,"count":36,"max":[1.0,1.0],"min":[0.0,0.0],"normalized":false,"type":"VEC2"},{"bufferView":4,"byteOffset":0,"componentType":5123,"count":36,"max":[35.0],"min":[0.0],"normalized":false,"type":"SCALAR"},{"bufferView":5,"byteOffset":0,"componentType":5126,"count":1950,"max":[0.5,1.0,0.5],"min":[-0.5,-1.0,-0.5],"normalized":false,"type":"VEC3"},{"bufferView":6,"byteOffset":0,"componentType":5126,"count":1950,"max":[1.0,0.0,1.0,1.0],"min":[-1.0,-0.0000215795153053477,-1.0,1.0],"normalized":false,"type":"VEC4"},{"bufferView":7,"byteOffset":0,"componentType":5126,"count":1950,"max":[1.0,1.0,1.0],"min":[-1.0,-1.0,-1.0],"normalized":false,"type":"VEC3"},{"bufferView":8,"byteOffset":0,"componentType":5126,"count":1950,"max":[1.0,1.0],"min":[0.0,0.0],"normalized":false,"type":"VEC2"},{"bufferView":9,"byteOffset":0,"componentType":5123,"count":10368,"max":[1949.0],"min":[0.0],"normalized":false,"type":"SCALAR"},{"bufferView":10,"byteOffset":0,"componentType":5126,"count":396,"max":[0.5,2.36425995826721,2.0],"min":[-0.5,-2.36425995826721,-2.0],"normalized":false,"type":"VEC3"},{"bufferView":11,"byteOffset":0,"componentType":5126,"count":396,"max":[0.000125538907013834,1.0,0.998983800411224,1.0],"min":[-1.0,-1.0,-1.0,-1.0],"normalized":false,"type":"VEC4"},{"bufferView":12,"byteOffset":0,"componentType":5126,"count":396,"max":[1.0,1.0,1.0],"min":[-1.0,-1.0,-1.0],"normalized":false,"type":"VEC3"},{"bufferView":13,"byteOffset":0,"componentType":5126,"count":396,"max":[1.0,1.0],"min":[0.0,0.0],"normalized":false,"type":"VEC2"},{"bufferView":14,"byteOffset":0,"componentType":5123,"count":396,"max":[395.0],"min":[0.0],"normalized":false,"type":"SCALAR"}],"asset":{"generator":"Godot Engine v4.4.1.stable.official@49a5bc7b616bd04689a2c89e89bda41f50241464","version":"2.0"},"bufferViews":[{"buffer":0,"byteLength":432,"byteOffset":0,"byteStride":12,"target":34962},{"buffer":0,"byteLength":576,"byteOffset":432,"byteStride":16,"target":34962},{"buffer":0,"byteLength":432,"byteOffset":1008,"byteStride":12,"target":34962},{"buffer":0,"byteLength":288,"byteOffset":1440,"byteStride":8,"target":34962},{"buffer":0,"byteLength":72,"byteOffset":1728,"target":34963},{"buffer":0,"byteLength":23400,"byteOffset":1800,"byteStride":12,"target":34962},{"buffer":0,"byteLength":31200,"byteOffset":25200,"byteStride":16,"target":34962},{"buffer":0,"byteLength":23400,"byteOffset":56400,"byteStride":12,"target":34962},{"buffer":0,"byteLength":15600,"byteOffset":79800,"byteStride":8,"target":34962},{"buffer":0,"byteLength":20736,"byteOffset":95400,"target":34963},{"buffer":0,"byteLength":4752,"byteOffset":116136,"byteStride":12,"target":34962},{"buffer":0,"byteLength":6336,"byteOffset":120888,"byteStride":16,"target":34962},{"buffer":0,"byteLength":4752,"byteOffset":127224,"byteStride":12,"target":34962},{"buffer":0,"byteLength":3168,"byteOffset":131976,"byteStride":8,"target":34962},{"buffer":0,"byteLength":792,"byteOffset":135144,"target":34963}],"buffers":[{"byteLength":135936,"uri":"3d_world0.bin"}],"cameras":[{"perspective":{"yfov":1.30899691581726,"zfar":4000.0,"znear":0.0500000007450581},"type":"perspective"}],"extensions":{"KHR_lights_punctual":{"lights":[{"type":"directional"},{"color":[0.998368561267853,0.469069063663483,0.0651481822133064],"range":2.5,"type":"point"},{"color":[0.472186744213104,0.417823225259781,0.820935726165771],"range":2.5,"type":"point"}]},"OMI_physics_shape":{"shapes":[{"capsule":{"height":2.0,"radius":0.5},"type":"capsule"}]}},"extensionsUsed":["GODOT_single_root","KHR_lights_punctual","OMI_physics_body","OMI_physics_shape"],"materials":[{},{},{}],"meshes":[{"extras":{"targetNames":[]},"primitives":[{"attributes":{"NORMAL":2,"POSITION":0,"TANGENT":1,"TEXCOORD_0":3},"indices":4,"material":0,"mode":4}]},{"extras":{"targetNames":[]},"primitives":[{"attributes":{"NORMAL":7,"POSITION":5,"TANGENT":6,"TEXCOORD_0":8},"indices":9,"material":1,"mode":4}]},{"extras":{"targetNames":[]},"primitives":[{"attributes":{"NORMAL":12,"POSITION":10,"TANGENT":11,"TEXCOORD_0":13},"indices":14,"material":2,"mode":4}]}],"nodes":[{"children":[1,2,3,4,8,11,12],"name":"Node3D"},{"extensions":{"KHR_lights_punctual":{"light":0}},"name":"DirectionalLight3D","rotation":[-0.129410669207573,0.836515367031097,0.482963532209396,0.22414530813694]},{"name":"WorldEnvironment"},{"mesh":0,"name":"CSGBox3D2"},{"children":[5,6,7],"extensions":{"OMI_physics_body":{"motion":{"type":"kinematic"}}},"name":"CharacterBody3D","translation":[0.0,1.7240799665451,0.0]},{"extensions":{"OMI_physics_body":{"collider":{"shape":0}}},"name":"CollisionShape3D"},{"mesh":1,"name":"MeshInstance3D"},{"camera":0,"name":"Camera3D","translation":[1.03498005867004,0.885167002677917,1.91408002376556]},{"children":[9,10],"mesh":2,"name":"CSGBox3D23","rotation":[0.0,-0.70710676908493,0.0,0.70710676908493],"translation":[0.0,2.57399010658264,-4.3785400390625]},{"name":"CSGCylinder3D","rotation":[-0.0000000210733954730813,-0.0000000000000100485915636018,0.70710676908493,0.70710676908493],"scale":[4.05354976654053,1.0,2.94712996482849],"translation":[0.0,-1.06578004360199,0.0]},{"name":"CSGBox3D3","translation":[0.0,1.21902000904083,1.28770005702972]},{"extensions":{"KHR_lights_punctual":{"light":1}},"name":"OmniLight3D","translation":[-1.69414973258972,1.78794360160828,-3.65321516990662]},{"extensions":{"KHR_lights_punctual":{"light":2}},"name":"OmniLight3D2","translation":[1.79317545890808,1.78794360160828,-3.65321516990662]}],"scene":0,"scenes":[{"nodes":[0]}]}